<svg xmlns="http://www.w3.org/2000/svg" viewBox="0 0 331.6 220.0" role="img" aria-label="C.C monogram — Christian Colón">
<g transform="translate(110.00,110.00)">
<path fill="#e8edf7" d="M126.14605712890625 55.23307800292969 144.0802459716797 76.60621643066406C126.69862365722656 91.20643615722656 104.27623748779297 100.0 79.80000305175781 100.0C65.6166000366211 100.0 52.12286376953125 97.04718780517578 39.900001525878906 91.7227554321289C27.677139282226562 97.04718780517578 14.183403968811035 100.0 0.0 100.0C-55.22847366333008 100.0 -100.0 55.22847366333008 -100.0 0.0C-100.0 -55.22847366333008 -55.22847366333008 -100.0 0.0 -100.0C14.183403968811035 -100.0 27.677139282226562 -97.04718780517578 39.900001525878906 -91.7227554321289C52.12286376953125 -97.04718780517578 65.6166000366211 -100.0 79.80000305175781 -100.0C104.27623748779297 -100.0 126.69862365722656 -91.20643615722656 144.0802459716797 -76.60621643066406L126.14605712890625 -55.23307800292969C113.61390686035156 -65.75983428955078 97.44737243652344 -72.0999984741211 79.80000305175781 -72.0999984741211C70.652099609375 -72.0999984741211 61.90210723876953 -70.39633178710938 53.849998474121094 -67.28897857666016V67.28898620605469C61.90210723876953 70.3963394165039 70.652099609375 72.0999984741211 79.80000305175781 72.0999984741211C97.44737243652344 72.0999984741211 113.61390686035156 65.75983428955078 126.14605712890625 55.23307800292969ZM25.950000762939453 -67.28898620605469C17.89789390563965 -70.3963394165039 9.147903442382812 -72.0999984741211 0.0 -72.0999984741211C-39.81972885131836 -72.0999984741211 -72.0999984741211 -39.81972885131836 -72.0999984741211 0.0C-72.0999984741211 39.81972885131836 -39.81972885131836 72.0999984741211 0.0 72.0999984741211C9.147903442382812 72.0999984741211 17.89789390563965 70.3963394165039 25.950000762939453 67.28898620605469V-67.28898620605469Z"/>
<rect x="188.3" y="76.7" width="23.3" height="23.3" fill="#7aa7ff"/>
</g></svg>